<svg width="5" height="5" viewBox="0 0 5 5" fill="none" xmlns="http://www.w3.org/2000/svg">
<path d="M2.5 0C1.11977 0 0 1.12902 0 2.5C0 3.87655 1.12353 5 2.5 5C3.87656 5 5 3.87647 5 2.5C5 1.12344 3.87647 0 2.5 0ZM2.5 0.292969C2.74383 0.292969 2.97852 0.332803 3.19799 0.406152C3.15686 0.466904 3.13113 0.547217 3.13113 0.65084C3.13113 0.809072 3.20186 0.950508 3.27024 1.08729C3.32588 1.19856 3.37843 1.30366 3.37843 1.39273C3.37843 1.44424 3.36617 1.4561 3.32403 1.47016C3.24359 1.49697 3.09423 1.4938 2.99197 1.49347C2.75059 1.49266 2.47683 1.49178 2.18484 1.78375C2.14452 1.82409 2.12269 1.82615 1.983 1.75631C1.8552 1.6924 1.64126 1.58545 1.44297 1.78375C1.32698 1.89974 1.28117 2.06308 1.31324 2.22873C1.16991 2.17309 0.971719 2.14732 0.947471 2.08582C0.93625 2.05737 0.91873 1.93354 1.16434 1.53481C1.25542 1.38693 1.36484 1.17026 1.26389 0.996699C1.21492 0.91252 1.13289 0.867715 1.04231 0.844365C1.43139 0.501396 1.94178 0.292969 2.5 0.292969ZM2.5 4.70703C1.28304 4.70703 0.292969 3.71696 0.292969 2.5C0.292969 1.97551 0.476992 1.49325 0.783701 1.11415C0.952529 1.1127 0.998125 1.13324 1.01032 1.14416C1.01188 1.15376 1.01635 1.21646 0.914883 1.38117C0.675469 1.76985 0.603711 2.01273 0.674922 2.19331C0.771113 2.43724 1.07307 2.4376 1.237 2.51454C1.33619 2.56109 1.8368 2.79169 1.89465 2.87762V3.12383C1.89465 3.30737 2.06795 3.4065 2.2072 3.48616C2.26361 3.51843 2.38101 3.58559 2.38924 3.61843C2.38924 4.20278 2.44549 4.52448 2.518 4.70682C2.51199 4.70686 2.50602 4.70703 2.5 4.70703ZM2.88105 4.54864C2.88197 4.57812 2.85119 4.63813 2.82463 4.66497C2.78727 4.61315 2.68222 4.39803 2.68222 3.61842C2.68222 3.42035 2.4995 3.31583 2.35268 3.23186C2.301 3.20229 2.20522 3.14807 2.18665 3.11816V2.87653C2.18665 2.83708 2.18028 2.80187 2.16763 2.7702C2.41106 2.74782 2.52967 2.66206 2.61961 2.59702C2.68276 2.55135 2.71446 2.52843 2.78303 2.52843C2.785 2.52843 2.78601 2.52856 2.78599 2.52854C2.80139 2.53608 2.83413 2.59082 2.85371 2.62355C3.01981 2.9011 3.18185 3.00028 3.49953 3.06986C3.54212 3.07919 3.60546 3.09307 3.62425 3.10558C3.62488 3.10856 3.62573 3.11433 3.62573 3.12382C3.62573 3.4261 3.39306 3.6451 3.18776 3.83831C3.02315 3.99324 2.88099 4.12705 2.88099 4.29683C2.88098 4.32055 2.88066 4.53572 2.88105 4.54864ZM3.16954 4.6031C3.17289 4.5819 3.17349 4.56099 3.17294 4.54076C3.17272 4.52092 3.17298 4.29832 3.17298 4.29686C3.17299 4.29666 3.17519 4.27552 3.21962 4.22176C3.26096 4.17173 3.32294 4.1134 3.38856 4.05163C3.6123 3.84105 3.9187 3.55267 3.9187 3.1238C3.9187 2.97695 3.84463 2.89883 3.78249 2.85915C3.71753 2.81768 3.64209 2.80115 3.56221 2.78365C3.32494 2.73168 3.22937 2.68081 3.10513 2.47313C3.04512 2.37281 2.96293 2.23542 2.78303 2.23542C2.61964 2.23542 2.52443 2.30427 2.44794 2.35958C2.36037 2.42291 2.27765 2.48271 2.04114 2.48271C1.80623 2.48271 1.66649 2.3466 1.61821 2.23005C1.59996 2.18599 1.56653 2.07448 1.65013 1.99089C1.69047 1.95056 1.71229 1.94849 1.85198 2.01833C1.97979 2.08224 2.19371 2.1892 2.39201 1.99089C2.59778 1.78512 2.77137 1.78569 2.99103 1.78641C3.1316 1.78686 3.29162 1.78976 3.41668 1.74806C3.58094 1.6933 3.67141 1.5671 3.67141 1.39271C3.67141 1.23447 3.60068 1.09304 3.53229 0.95625C3.47666 0.84498 3.42411 0.739883 3.42411 0.650811C3.42411 0.58208 3.43904 0.543623 3.51486 0.540537C4.22253 0.908584 4.70703 1.64874 4.70703 2.5C4.70703 3.48363 4.06017 4.31892 3.16954 4.6031Z" fill="#434343"/>
</svg>
