<svg width="17" height="17" viewBox="0 0 17 17" fill="none" xmlns="http://www.w3.org/2000/svg">
<g clip-path="url(#clip0)">
<path d="M16.7145 7.59968L9.08715 0.649687C8.75237 0.344584 8.24751 0.344617 7.91286 0.649654L0.285482 7.59972C0.0173003 7.84409 -0.0712856 8.22062 0.0597338 8.55892C0.190786 8.89723 0.509868 9.1158 0.872678 9.1158H2.0909V16.0792C2.0909 16.3553 2.31475 16.5791 2.59084 16.5791H6.77157C7.04765 16.5791 7.27151 16.3553 7.27151 16.0792V11.8512H9.7286V16.0792C9.7286 16.3553 9.95246 16.5792 10.2285 16.5792H14.4091C14.6852 16.5792 14.909 16.3553 14.909 16.0792V9.1158H16.1275C16.4902 9.1158 16.8094 8.89719 16.9404 8.55892C17.0713 8.22058 16.9827 7.84409 16.7145 7.59968Z" fill="#282828"/>
<path d="M14.7784 1.41876H11.421L15.2784 4.9262V1.91867C15.2784 1.64258 15.0545 1.41876 14.7784 1.41876Z" fill="#282828"/>
</g>
<defs>
<clipPath id="clip0">
<rect width="17" height="17" fill="white"/>
</clipPath>
</defs>
</svg>
