<svg width="13" height="15" viewBox="0 0 13 15" fill="none" xmlns="http://www.w3.org/2000/svg">
<path d="M1.35416 6.5625C0.60775 6.5625 0 7.26375 0 8.12499V13.125C0 13.9862 0.60775 14.6875 1.35416 14.6875H2.97916C3.28413 14.6875 3.56469 14.5687 3.79166 14.3712V6.5625H1.35416Z" fill="black"/>
<path d="M13 8.90626C13 8.53064 12.8711 8.18063 12.6474 7.9225C12.9003 7.60313 13.0292 7.17499 12.994 6.72938C12.9307 5.935 12.3104 5.3125 11.5814 5.3125H8.2355C8.40125 4.73186 8.66666 3.66751 8.66666 2.81251C8.66666 1.45688 7.66837 0.312515 7.04166 0.312515C6.47888 0.312515 6.07694 0.67814 6.05963 0.69314C5.99572 0.752525 5.95834 0.842525 5.95834 0.937506V3.05687L4.39834 6.95626L4.33334 6.99437V13.6931C4.77425 13.9331 5.33216 14.0625 5.6875 14.0625H10.6595C11.2493 14.0625 11.7656 13.6037 11.8869 12.9706C11.9492 12.645 11.9129 12.3169 11.7888 12.0319C12.1891 11.7994 12.4583 11.3237 12.4583 10.7813C12.4583 10.56 12.4145 10.3481 12.3311 10.1563C12.7313 9.92377 13 9.44813 13 8.90626Z" fill="black"/>
</svg>
