<svg width="11" height="11" viewBox="0 0 11 11" fill="none" xmlns="http://www.w3.org/2000/svg">
<path d="M10.7395 9.40845L8.21053 6.8793C8.64022 6.19522 8.88961 5.38668 8.88961 4.51896C8.88961 2.06407 6.89951 0.0742493 4.44471 0.0742493C1.98991 0.0742493 0 2.06407 0 4.51896C0 6.97394 1.98982 8.96358 4.44471 8.96358C5.38901 8.96358 6.26367 8.66835 6.98341 8.1667L9.48228 10.6658C9.65592 10.8392 9.88354 10.9256 10.1109 10.9256C10.3385 10.9256 10.5659 10.8392 10.7398 10.6658C11.0868 10.3184 11.0868 9.75573 10.7395 9.40845ZM4.44471 7.52356C2.78549 7.52356 1.4403 6.17846 1.4403 4.51914C1.4403 2.85983 2.78549 1.51464 4.44471 1.51464C6.10402 1.51464 7.44912 2.85983 7.44912 4.51914C7.44912 6.17846 6.10402 7.52356 4.44471 7.52356Z" fill="#767676"/>
</svg>
