<svg width="21" height="22" viewBox="0 0 21 22" fill="none" xmlns="http://www.w3.org/2000/svg">
<path d="M19.6539 3.94869H1.34617C0.602519 3.94869 0 3.31747 0 2.53845C0 1.75943 0.602519 1.12817 1.34617 1.12817H19.6539C20.3975 1.12817 21 1.75938 21 2.53845C21 3.31752 20.3975 3.94869 19.6539 3.94869Z" fill="#191919"/>
<path d="M12.1154 12.4103H1.34617C0.602519 12.4103 0 11.779 0 11C0 10.221 0.602519 9.58972 1.34617 9.58972H12.1154C12.859 9.58972 13.4616 10.2209 13.4616 11C13.4616 11.7791 12.859 12.4103 12.1154 12.4103Z" fill="#191919"/>
<path d="M19.6539 12.3103H17.5C16.816 12.3103 16.2539 11.7283 16.2539 11C16.2539 10.2717 16.8159 9.68972 17.5 9.68972H19.6539C20.3379 9.68972 20.9 10.2717 20.9 11C20.9 11.7283 20.3379 12.3103 19.6539 12.3103Z" fill="#898989" fill-opacity="0.5" stroke="black" stroke-width="0.2"/>
<path d="M19.6539 20.8718H1.34617C0.602519 20.8718 0 20.2406 0 19.4615C0 18.6825 0.602519 18.0513 1.34617 18.0513H19.6539C20.3975 18.0513 21 18.6825 21 19.4615C21 20.2406 20.3975 20.8718 19.6539 20.8718Z" fill="#191919"/>
</svg>
