<svg width="17" height="17" viewBox="0 0 17 17" fill="none" xmlns="http://www.w3.org/2000/svg">
<path d="M10.5298 14.2371C10.5559 13.0731 9.63325 12.1085 8.46917 12.0825C7.30522 12.0565 6.34057 12.979 6.31459 14.143C6.28861 15.3071 7.21113 16.2717 8.37508 16.2977C9.53867 16.3224 10.5025 15.4006 10.5298 14.2371ZM7.15484 14.1618C7.17046 13.462 7.75062 12.9071 8.45041 12.9228C9.15034 12.9384 9.70503 13.5185 9.68941 14.2183C9.67379 14.9182 9.09389 15.473 8.39384 15.4573C7.69433 15.4409 7.14028 14.8613 7.15484 14.1618Z" fill="#383838"/>
<path d="M10.6501 8.84675C10.6761 7.68267 9.75358 6.71789 8.5895 6.69191C7.42555 6.66593 6.46089 7.58858 6.43491 8.75266C6.40893 9.91661 7.33145 10.8813 8.49541 10.9072C9.65949 10.9332 10.6241 10.0107 10.6501 8.84675ZM7.27516 8.77142C7.29079 8.07136 7.87095 7.51654 8.57074 7.53216C9.2708 7.54778 9.82536 8.12794 9.80974 8.82799C9.79412 9.52778 9.21422 10.0825 8.51416 10.0669C7.81437 10.0512 7.25954 9.47121 7.27516 8.77142Z" fill="#383838"/>
<path d="M10.7704 3.45615C10.7964 2.29207 9.8739 1.32742 8.70982 1.30143C7.54587 1.27545 6.58122 2.19798 6.55524 3.36206C6.52926 4.52601 7.45178 5.49066 8.61573 5.51664C9.77932 5.5413 10.7432 4.61954 10.7704 3.45615ZM7.39549 3.38082C7.41111 2.68089 7.99127 2.1262 8.69106 2.14182C9.39112 2.15744 9.94568 2.73747 9.93006 3.43739C9.91444 4.13731 9.33454 4.69188 8.63449 4.67626C7.9347 4.66064 7.37987 4.08061 7.39549 3.38082Z" fill="#383838"/>
</svg>
