<svg width="21" height="21" viewBox="0 0 21 21" fill="none" xmlns="http://www.w3.org/2000/svg">
<path d="M12.4402 17.5C12.4402 19.0928 11.149 20.3839 9.55615 20.3839C7.96343 20.3839 6.67224 19.0928 6.67224 17.5C6.67224 15.9072 7.96343 14.616 9.55615 14.616C11.149 14.616 12.4402 15.9072 12.4402 17.5Z" fill="#AEAEAE"/>
<path d="M16.8904 15.2732C15.7083 14.2459 15.0301 12.7435 15.0301 11.1519V8.91017C15.0301 5.80564 12.574 3.28046 9.55615 3.28046C6.5383 3.28046 4.08217 5.80564 4.08217 8.91017V11.1519C4.08217 12.7435 3.40413 14.2459 2.215 15.2793C1.91042 15.5478 1.73627 15.9381 1.73627 16.3494C1.73627 17.1255 2.35054 17.7564 3.10484 17.7564H16.0084C16.7627 17.7564 17.377 17.1247 17.377 16.3494C17.377 15.9381 17.2019 15.5478 16.8904 15.2732Z" fill="#EEEEEE"/>
<path d="M20 4.50008C20 6.98537 17.9854 9 15.5001 9C13.0148 9 11 6.98537 11 4.50008C11 2.0148 13.0148 0 15.5001 0C17.9854 0 20 2.0148 20 4.50008Z" fill="#F44336"/>
<path d="M9.61127 21C7.80273 21 6.33002 19.5282 6.33002 17.7188C6.33002 17.3565 6.62402 17.0625 6.98627 17.0625C7.34852 17.0625 7.64252 17.3565 7.64252 17.7188C7.64252 18.8047 8.52628 19.6875 9.61127 19.6875C10.6963 19.6875 11.58 18.8047 11.58 17.7188C11.58 17.3565 11.874 17.0625 12.2363 17.0625C12.5985 17.0625 12.8925 17.3565 12.8925 17.7188C12.8925 19.5282 11.42 21 9.61127 21Z" fill="#767676"/>
<path d="M16.83 18.375H2.39252C1.54818 18.375 0.861328 17.6881 0.861328 16.8438C0.861328 16.3957 1.05647 15.9714 1.39677 15.68C1.41872 15.6608 1.44228 15.6433 1.46679 15.6274C2.75125 14.5066 3.48633 12.894 3.48633 11.1912V8.74995C3.48633 5.37257 6.2347 2.625 9.61127 2.625C9.7513 2.625 9.90271 2.62756 10.0427 2.65128C10.4005 2.71072 10.6421 3.04942 10.5825 3.40638C10.5231 3.76431 10.1775 4.00319 9.82741 3.94535C9.75739 3.93494 9.68049 3.9367 9.61127 3.9375C6.9584 3.9375 4.79883 6.09611 4.79883 8.74995V11.1912C4.79883 13.3052 3.87213 15.3056 2.25874 16.6783C2.24561 16.6889 2.23423 16.6985 2.22013 16.7081C2.19658 16.7379 2.17383 16.7834 2.17383 16.8438C2.17383 16.9627 2.27364 17.0625 2.39252 17.0625H16.83C16.9491 17.0625 17.0489 16.9627 17.0489 16.8438C17.0489 16.7824 17.0261 16.7379 17.0016 16.7081C16.9885 16.6985 16.9771 16.6889 16.964 16.6783C15.3496 15.3046 14.4239 13.3052 14.4239 11.1912V10.2376C14.4239 9.87531 14.7179 9.58131 15.0801 9.58131C15.4424 9.58131 15.7364 9.87531 15.7364 10.2376V11.1912C15.7364 12.8949 16.4723 14.5083 17.7585 15.6302C17.782 15.6459 17.8048 15.6625 17.8258 15.6809C18.1662 15.9714 18.3614 16.3957 18.3614 16.8438C18.3614 17.6881 17.6745 18.375 16.83 18.375Z" fill="#767676"/>
<path d="M13.5066 3.804C13.5839 3.772 13.6639 3.736 13.7466 3.696C13.8319 3.65333 13.9146 3.608 13.9946 3.56C14.0746 3.50933 14.1506 3.45733 14.2226 3.404C14.2972 3.348 14.3639 3.28933 14.4226 3.228H14.8386V6H14.2426V4.004C14.1626 4.05733 14.0732 4.10667 13.9746 4.152C13.8759 4.19467 13.7799 4.232 13.6866 4.264L13.5066 3.804ZM17.636 4.608C17.636 5.07467 17.5467 5.43333 17.368 5.684C17.192 5.932 16.948 6.056 16.636 6.056C16.324 6.056 16.0787 5.932 15.9 5.684C15.724 5.43333 15.636 5.07467 15.636 4.608C15.636 4.376 15.6587 4.17067 15.704 3.992C15.752 3.81333 15.82 3.66267 15.908 3.54C15.996 3.41733 16.1013 3.324 16.224 3.26C16.3467 3.196 16.484 3.164 16.636 3.164C16.948 3.164 17.192 3.28933 17.368 3.54C17.5467 3.788 17.636 4.144 17.636 4.608ZM17.028 4.608C17.028 4.46933 17.0213 4.344 17.008 4.232C16.9947 4.11733 16.9733 4.01867 16.944 3.936C16.9147 3.85333 16.8747 3.78933 16.824 3.744C16.7733 3.69867 16.7107 3.676 16.636 3.676C16.5613 3.676 16.4987 3.69867 16.448 3.744C16.4 3.78933 16.36 3.85333 16.328 3.936C16.2987 4.01867 16.2773 4.11733 16.264 4.232C16.2507 4.344 16.244 4.46933 16.244 4.608C16.244 4.74667 16.2507 4.87333 16.264 4.988C16.2773 5.10267 16.2987 5.20133 16.328 5.284C16.36 5.36667 16.4 5.43067 16.448 5.476C16.4987 5.52133 16.5613 5.544 16.636 5.544C16.7107 5.544 16.7733 5.52133 16.824 5.476C16.8747 5.43067 16.9147 5.36667 16.944 5.284C16.9733 5.20133 16.9947 5.10267 17.008 4.988C17.0213 4.87333 17.028 4.74667 17.028 4.608Z" fill="white"/>
</svg>
