<svg width="11" height="11" viewBox="0 0 11 11" fill="none" xmlns="http://www.w3.org/2000/svg">
<g clip-path="url(#clip0)">
<path d="M10.45 4.95H6.05003V0.549966C6.05003 0.246433 5.8036 0 5.49997 0C5.19643 0 4.95 0.246433 4.95 0.549966V4.95H0.549966C0.246433 4.95 0 5.19643 0 5.49997C0 5.8036 0.246433 6.05003 0.549966 6.05003H4.95V10.45C4.95 10.7536 5.19643 11 5.49997 11C5.8036 11 6.05003 10.7536 6.05003 10.45V6.05003H10.45C10.7536 6.05003 11 5.8036 11 5.49997C11 5.19643 10.7536 4.95 10.45 4.95V4.95Z" fill="white"/>
</g>
<defs>
<clipPath id="clip0">
<rect width="11" height="11" fill="white"/>
</clipPath>
</defs>
</svg>
