<svg width="14" height="14" viewBox="0 0 14 14" fill="none" xmlns="http://www.w3.org/2000/svg">
<path d="M12.4868 0H10.5273C10.3008 0 10.1172 0.183641 10.1172 0.410156C10.1172 0.636672 10.3008 0.820312 10.5273 0.820312H12.4868C12.8688 0.820312 13.1797 1.13116 13.1797 1.51323V3.47266C13.1797 3.69917 13.3633 3.88281 13.5898 3.88281C13.8164 3.88281 14 3.69917 14 3.47266V1.51323C14 0.678836 13.3212 0 12.4868 0V0Z" fill="#767676"/>
<path d="M0.410156 3.88281C0.636672 3.88281 0.820312 3.69917 0.820312 3.47266V1.51323C0.820312 1.13116 1.13116 0.820312 1.5132 0.820312H3.47266C3.69917 0.820312 3.88281 0.636672 3.88281 0.410156C3.88281 0.183641 3.69917 0 3.47266 0H1.5132C0.678836 0 0 0.678836 0 1.51323V3.47266C0 3.69917 0.183641 3.88281 0.410156 3.88281Z" fill="#767676"/>
<path d="M3.47266 13.1797H1.5132C1.13116 13.1797 0.820312 12.8688 0.820312 12.4868V10.5273C0.820312 10.3008 0.636672 10.1172 0.410156 10.1172C0.183641 10.1172 0 10.3008 0 10.5273V12.4868C0 13.3212 0.678836 14 1.5132 14H3.47266C3.69917 14 3.88281 13.8164 3.88281 13.5898C3.88281 13.3633 3.69917 13.1797 3.47266 13.1797Z" fill="#767676"/>
<path d="M13.5898 10.1172C13.3633 10.1172 13.1797 10.3008 13.1797 10.5273V12.4868C13.1797 12.8688 12.8688 13.1797 12.4868 13.1797H10.5273C10.3008 13.1797 10.1172 13.3633 10.1172 13.5898C10.1172 13.8164 10.3008 14 10.5273 14H12.4868C13.3212 14 14 13.3212 14 12.4868V10.5273C14 10.3008 13.8164 10.1172 13.5898 10.1172Z" fill="#767676"/>
<path d="M9.34181 3.00781H10.6427C10.8203 3.00781 10.9649 3.15232 10.9649 3.32998V4.63083C10.9649 4.85734 11.1485 5.04098 11.375 5.04098C11.6015 5.04098 11.7852 4.85734 11.7852 4.63083V3.32998C11.7852 2.7 11.2726 2.1875 10.6427 2.1875H9.34181C9.1153 2.1875 8.93166 2.37114 8.93166 2.59766C8.93166 2.82417 9.1153 3.00781 9.34181 3.00781Z" fill="#767676"/>
<path d="M2.21484 3.32998V4.63083C2.21484 4.85734 2.39848 5.04098 2.625 5.04098C2.85152 5.04098 3.03516 4.85734 3.03516 4.63083V3.32998C3.03516 3.15232 3.1797 3.00781 3.35732 3.00781H4.6582C4.88471 3.00781 5.06836 2.82417 5.06836 2.59766C5.06836 2.37114 4.88471 2.1875 4.6582 2.1875H3.35732C2.72737 2.1875 2.21484 2.7 2.21484 3.32998Z" fill="#767676"/>
<path d="M4.6582 10.9375H3.35732C3.17967 10.9375 3.03516 10.793 3.03516 10.6153V9.31448C3.03516 9.08797 2.85152 8.90433 2.625 8.90433C2.39848 8.90433 2.21484 9.08797 2.21484 9.31448V10.6153C2.21484 11.2453 2.72737 11.7578 3.35732 11.7578H4.6582C4.88471 11.7578 5.06836 11.5742 5.06836 11.3477C5.06836 11.1211 4.88471 10.9375 4.6582 10.9375Z" fill="#767676"/>
<path d="M11.7852 10.6153V9.31448C11.7852 9.08797 11.6015 8.90433 11.375 8.90433C11.1485 8.90433 10.9649 9.08797 10.9649 9.31448V10.6153C10.9649 10.793 10.8203 10.9375 10.6427 10.9375H9.34181C9.1153 10.9375 8.93166 11.1211 8.93166 11.3477C8.93166 11.5742 9.1153 11.7578 9.34181 11.7578H10.6427C11.2726 11.7578 11.7852 11.2453 11.7852 10.6153Z" fill="#767676"/>
<path d="M0.0273438 7C0.0273438 7.22652 0.210984 7.41016 0.4375 7.41016H13.5625C13.789 7.41016 13.9727 7.22652 13.9727 7C13.9727 6.77348 13.789 6.58984 13.5625 6.58984H0.4375C0.210984 6.58984 0.0273438 6.77348 0.0273438 7Z" fill="#767676"/>
</svg>
