<svg width="15" height="15" viewBox="0 0 15 15" fill="none" xmlns="http://www.w3.org/2000/svg">
<path d="M3.75 5.89172H0.536611C0.241632 5.89172 0.00313808 6.13022 0 6.42833V14.4618C0 14.7599 0.241632 14.9984 0.536611 14.9984H3.75C4.04812 14.9984 4.28661 14.7568 4.28661 14.4618V6.42833C4.28661 6.13022 4.04498 5.89172 3.75 5.89172Z" fill="#282828"/>
<path d="M9.10668 0.00158691H5.8933C5.59832 0.00158691 5.35669 0.240081 5.35669 0.53506V14.4618C5.35669 14.76 5.59832 14.9985 5.8933 14.9985H9.10668C9.4048 14.9985 9.64329 14.7568 9.64329 14.4618V0.538198C9.64329 0.240081 9.40166 0.00158691 9.10668 0.00158691Z" fill="#282828"/>
<path d="M14.4634 4.28506H11.25C10.9519 4.28506 10.7134 4.52356 10.7134 4.82168V14.4618C10.7134 14.76 10.955 14.9985 11.25 14.9985H14.4634C14.7615 14.9985 15 14.7568 15 14.4618V4.82168C15 4.52356 14.7584 4.28506 14.4634 4.28506Z" fill="#282828"/>
</svg>
