<svg width="16" height="16" viewBox="0 0 16 16" fill="none" xmlns="http://www.w3.org/2000/svg">
<g clip-path="url(#clip0)">
<path d="M0.973631 13.8994H13.9521C14.4893 13.8994 14.9258 13.1632 14.9258 12.2573V8.55166H10.2669C9.91805 8.55166 9.57728 8.43674 9.25761 8.20682C8.94929 7.98787 8.6718 7.6704 8.43489 7.27085C8.19797 6.87128 8.00974 6.40326 7.87992 5.88326C7.74523 5.34411 7.67546 4.76938 7.67546 4.18096V3.71844C7.67546 3.13002 7.74361 2.55529 7.87992 2.01614C8.00974 1.49614 8.19799 1.02815 8.43489 0.628571C8.67182 0.228996 8.94929 -0.0884746 9.25761 -0.30742C9.57728 -0.534576 9.91805 -0.652259 10.2669 -0.652259H14.9258V-4.35791C14.9258 -5.2638 14.4893 -6 13.9521 -6H0.973631C0.436511 -6 0 -5.2638 0 -4.35791V12.2573C0 13.1632 0.436511 13.8994 0.973631 13.8994Z" fill="#282828"/>
<path d="M16 2.22138C16 1.53991 15.6738 0.989807 15.2698 0.989807H14.9258H10.2669C9.37281 0.989807 8.64909 2.21043 8.64909 3.71841V4.18094C8.64909 5.68892 9.37283 6.90952 10.2669 6.90952H14.9258H15.2698C15.6738 6.90952 16 6.35942 16 5.67795V2.22138ZM10.5314 5.39882C10.056 5.39882 9.67141 4.75022 9.67141 3.94831C9.67141 3.14642 10.056 2.49779 10.5314 2.49779C11.0069 2.49779 11.3915 3.14642 11.3915 3.94831C11.3915 4.75022 11.0069 5.39882 10.5314 5.39882Z" fill="#282828"/>
</g>
<defs>
<clipPath id="clip0">
<rect width="16" height="16" fill="white"/>
</clipPath>
</defs>
</svg>
